<svg width="640" height="320" viewBox="0 0 640 320" fill="none" xmlns="http://www.w3.org/2000/svg">
    <path d="M269.305 134.008V176.723C269.305 178.738 269.445 180.074 269.727 180.73C270.031 181.387 270.488 181.891 271.098 182.242C271.707 182.57 272.844 182.734 274.508 182.734V184H258.723V182.734C260.199 182.734 261.207 182.582 261.746 182.277C262.285 181.973 262.707 181.469 263.012 180.766C263.316 180.062 263.469 178.715 263.469 176.723V147.473C263.469 143.84 263.387 141.613 263.223 140.793C263.059 139.949 262.789 139.375 262.414 139.07C262.062 138.766 261.605 138.613 261.043 138.613C260.434 138.613 259.66 138.801 258.723 139.176L258.125 137.945L267.723 134.008H269.305ZM294.02 150.848C298.895 150.848 302.809 152.699 305.762 156.402C308.27 159.566 309.523 163.199 309.523 167.301C309.523 170.184 308.832 173.102 307.449 176.055C306.066 179.008 304.156 181.234 301.719 182.734C299.305 184.234 296.609 184.984 293.633 184.984C288.781 184.984 284.926 183.051 282.066 179.184C279.652 175.926 278.445 172.27 278.445 168.215C278.445 165.262 279.172 162.332 280.625 159.426C282.102 156.496 284.035 154.34 286.426 152.957C288.816 151.551 291.348 150.848 294.02 150.848ZM292.93 153.133C291.688 153.133 290.434 153.508 289.168 154.258C287.926 154.984 286.918 156.273 286.145 158.125C285.371 159.977 284.984 162.355 284.984 165.262C284.984 169.949 285.91 173.992 287.762 177.391C289.637 180.789 292.098 182.488 295.145 182.488C297.418 182.488 299.293 181.551 300.77 179.676C302.246 177.801 302.984 174.578 302.984 170.008C302.984 164.289 301.754 159.789 299.293 156.508C297.629 154.258 295.508 153.133 292.93 153.133ZM322.883 172.258C320.914 171.297 319.402 169.961 318.348 168.25C317.293 166.516 316.766 164.605 316.766 162.52C316.766 159.332 317.961 156.59 320.352 154.293C322.766 151.996 325.848 150.848 329.598 150.848C332.668 150.848 335.328 151.598 337.578 153.098H344.398C345.406 153.098 345.992 153.133 346.156 153.203C346.32 153.25 346.438 153.344 346.508 153.484C346.648 153.695 346.719 154.07 346.719 154.609C346.719 155.219 346.66 155.641 346.543 155.875C346.473 155.992 346.344 156.086 346.156 156.156C345.992 156.227 345.406 156.262 344.398 156.262H340.215C341.527 157.949 342.184 160.105 342.184 162.73C342.184 165.73 341.035 168.297 338.738 170.43C336.441 172.562 333.359 173.629 329.492 173.629C327.898 173.629 326.27 173.395 324.605 172.926C323.574 173.816 322.871 174.602 322.496 175.281C322.145 175.938 321.969 176.5 321.969 176.969C321.969 177.367 322.156 177.754 322.531 178.129C322.93 178.504 323.691 178.773 324.816 178.938C325.473 179.031 327.113 179.113 329.738 179.184C334.566 179.301 337.695 179.465 339.125 179.676C341.305 179.98 343.039 180.789 344.328 182.102C345.641 183.414 346.297 185.031 346.297 186.953C346.297 189.602 345.055 192.086 342.57 194.406C338.914 197.828 334.145 199.539 328.262 199.539C323.738 199.539 319.918 198.52 316.801 196.48C315.043 195.309 314.164 194.09 314.164 192.824C314.164 192.262 314.293 191.699 314.551 191.137C314.949 190.27 315.77 189.062 317.012 187.516C317.176 187.305 318.371 186.039 320.598 183.719C319.379 182.992 318.512 182.348 317.996 181.785C317.504 181.199 317.258 180.543 317.258 179.816C317.258 178.996 317.586 178.035 318.242 176.934C318.922 175.832 320.469 174.273 322.883 172.258ZM329 152.535C327.266 152.535 325.812 153.227 324.641 154.609C323.469 155.992 322.883 158.113 322.883 160.973C322.883 164.676 323.68 167.547 325.273 169.586C326.492 171.133 328.039 171.906 329.914 171.906C331.695 171.906 333.16 171.238 334.309 169.902C335.457 168.566 336.031 166.469 336.031 163.609C336.031 159.883 335.223 156.965 333.605 154.855C332.41 153.309 330.875 152.535 329 152.535ZM322.531 184C321.43 185.195 320.598 186.309 320.035 187.34C319.473 188.371 319.191 189.32 319.191 190.188C319.191 191.312 319.871 192.297 321.23 193.141C323.574 194.594 326.961 195.32 331.391 195.32C335.609 195.32 338.715 194.57 340.707 193.07C342.723 191.594 343.73 190.012 343.73 188.324C343.73 187.105 343.133 186.238 341.938 185.723C340.719 185.207 338.305 184.902 334.695 184.809C329.422 184.668 325.367 184.398 322.531 184ZM358.883 172.258C356.914 171.297 355.402 169.961 354.348 168.25C353.293 166.516 352.766 164.605 352.766 162.52C352.766 159.332 353.961 156.59 356.352 154.293C358.766 151.996 361.848 150.848 365.598 150.848C368.668 150.848 371.328 151.598 373.578 153.098H380.398C381.406 153.098 381.992 153.133 382.156 153.203C382.32 153.25 382.438 153.344 382.508 153.484C382.648 153.695 382.719 154.07 382.719 154.609C382.719 155.219 382.66 155.641 382.543 155.875C382.473 155.992 382.344 156.086 382.156 156.156C381.992 156.227 381.406 156.262 380.398 156.262H376.215C377.527 157.949 378.184 160.105 378.184 162.73C378.184 165.73 377.035 168.297 374.738 170.43C372.441 172.562 369.359 173.629 365.492 173.629C363.898 173.629 362.27 173.395 360.605 172.926C359.574 173.816 358.871 174.602 358.496 175.281C358.145 175.938 357.969 176.5 357.969 176.969C357.969 177.367 358.156 177.754 358.531 178.129C358.93 178.504 359.691 178.773 360.816 178.938C361.473 179.031 363.113 179.113 365.738 179.184C370.566 179.301 373.695 179.465 375.125 179.676C377.305 179.98 379.039 180.789 380.328 182.102C381.641 183.414 382.297 185.031 382.297 186.953C382.297 189.602 381.055 192.086 378.57 194.406C374.914 197.828 370.145 199.539 364.262 199.539C359.738 199.539 355.918 198.52 352.801 196.48C351.043 195.309 350.164 194.09 350.164 192.824C350.164 192.262 350.293 191.699 350.551 191.137C350.949 190.27 351.77 189.062 353.012 187.516C353.176 187.305 354.371 186.039 356.598 183.719C355.379 182.992 354.512 182.348 353.996 181.785C353.504 181.199 353.258 180.543 353.258 179.816C353.258 178.996 353.586 178.035 354.242 176.934C354.922 175.832 356.469 174.273 358.883 172.258ZM365 152.535C363.266 152.535 361.812 153.227 360.641 154.609C359.469 155.992 358.883 158.113 358.883 160.973C358.883 164.676 359.68 167.547 361.273 169.586C362.492 171.133 364.039 171.906 365.914 171.906C367.695 171.906 369.16 171.238 370.309 169.902C371.457 168.566 372.031 166.469 372.031 163.609C372.031 159.883 371.223 156.965 369.605 154.855C368.41 153.309 366.875 152.535 365 152.535ZM358.531 184C357.43 185.195 356.598 186.309 356.035 187.34C355.473 188.371 355.191 189.32 355.191 190.188C355.191 191.312 355.871 192.297 357.23 193.141C359.574 194.594 362.961 195.32 367.391 195.32C371.609 195.32 374.715 194.57 376.707 193.07C378.723 191.594 379.73 190.012 379.73 188.324C379.73 187.105 379.133 186.238 377.938 185.723C376.719 185.207 374.305 184.902 370.695 184.809C365.422 184.668 361.367 184.398 358.531 184Z" fill="black" />
</svg>
